<svg fill="none" height="29" viewBox="0 0 29 29" width="29" xmlns="http://www.w3.org/2000/svg" xmlns:xlink="http://www.w3.org/1999/xlink"><linearGradient id="a"><stop offset="0" stop-color="#3183ff"/><stop offset="1" stop-color="#0b62e4"/></linearGradient><linearGradient id="b" gradientUnits="userSpaceOnUse" x1="12.5204" x2="23.4081" xlink:href="#a" y1="6.04297" y2="17.8028"/><linearGradient id="c" gradientUnits="userSpaceOnUse" x1="18.7925" x2="23.1618" xlink:href="#a" y1="10.875" y2="13.8782"/><g stroke-linecap="round" stroke-linejoin="round" stroke-width="2"><path d="m19.332 6.04297h-9.66664c-4.6714 0-8.45833 3.78692-8.45833 8.45833 0 4.6714 3.78693 8.4583 8.45833 8.4583h9.66664c4.6714 0 8.4584-3.7869 8.4584-8.4583 0-4.67141-3.787-8.45833-8.4584-8.45833z" stroke="url(#b)"/><path d="m19.332 10.875c-.9614 0-1.8834.3819-2.5632 1.0617-.6799.6799-1.0618 1.6019-1.0618 2.5633s.3819 1.8834 1.0618 2.5633c.6798.6798 1.6018 1.0617 2.5632 1.0617s1.8835-.3819 2.5633-1.0617c.6798-.6799 1.0617-1.6019 1.0617-2.5633s-.3819-1.8834-1.0617-2.5633c-.6798-.6798-1.6019-1.0617-2.5633-1.0617z" stroke="url(#c)"/></g></svg>