<svg fill="none" height="29" viewBox="0 0 29 29" width="29" xmlns="http://www.w3.org/2000/svg" xmlns:xlink="http://www.w3.org/1999/xlink"><linearGradient id="a"><stop offset="0" stop-color="#3183ff"/><stop offset="1" stop-color="#0b62e4"/></linearGradient><linearGradient id="b" gradientUnits="userSpaceOnUse" x1="17.5602" x2="27.027" xlink:href="#a" y1="10.875" y2="17.3819"/><linearGradient id="c" gradientUnits="userSpaceOnUse" x1="9.08118" x2="18.5526" xlink:href="#a" y1="2.39063" y2="8.88021"/><g stroke-linecap="round" stroke-linejoin="round" stroke-width="2"><path d="m24.1667 10.875h-10.875c-1.3347 0-2.4167 1.082-2.4167 2.4167v10.875c0 1.3347 1.082 2.4166 2.4167 2.4166h10.875c1.3347 0 2.4166-1.0819 2.4166-2.4166v-10.875c0-1.3347-1.0819-2.4167-2.4166-2.4167z" stroke="url(#b)"/><path d="m6.04343 18.1244h-1.20833l-.01208-.0012c-1.34125-.0121-2.41667-1.0875-2.41667-2.4287v-10.87503c-.01208-1.34125 1.07542-2.42875 2.40458-2.42875h10.87497-.0121c1.3292-.01208 2.4167 1.07542 2.4167 2.40459v1.20833" stroke="url(#c)"/></g></svg>